# xmcd
#
# Track frame offsets:
#	150
#	8546
#	22905
#	42074
#	63947
#	81255
#	100841
#	122032
#	140261
#	149956
#	172385
#	184950
#	203288
#	219142
#	238284
#	252449
#	270208
#
# Disc length: 3865
#
# Revision: 1
# Processed by: cddbd v1.5.1PL0 Copyright (c) Steve Scherf et al.
# Submitted via: dBpowerAMP V4.0
# Normalized: r0:TRMNUM
#
DISCID=ea0f1711
DTITLE=Cypress Hill  - Skull and Bones
DYEAR=2002
DGENRE=Rap
TTITLE0=Intro
TTITLE1=Another Victory
TTITLE2=(Rap) Superstar
TTITLE3=Cuban Necktie
TTITLE4=What U Want From Me
TTITLE5=Stank A**H**
TTITLE6=Highlife
TTITLE7=Certified Bomb
TTITLE8=Can I Get A Hit
TTITLE9=We Live This S***
TTITLE10=Worldwide
TTITLE11=Valley Of Chrome
TTITLE12=Get Out Of My Head
TTITLE13=Can't Get The Best Of Me
TTITLE14=A Man
TTITLE15=Dust
TTITLE16=(Rock) Superstar
EXTD=
EXTT0=
EXTT1=
EXTT2=
EXTT3=
EXTT4=
EXTT5=
EXTT6=
EXTT7=
EXTT8=
EXTT9=
EXTT10=
EXTT11=
EXTT12=
EXTT13=
EXTT14=
EXTT15=
EXTT16=
PLAYORDER=
